<?xml version="1.0" standalone="no"?>
<!DOCTYPE svg PUBLIC "-//W3C//DTD SVG 20010904//EN"
 "http://www.w3.org/TR/2001/REC-SVG-20010904/DTD/svg10.dtd">
<svg version="1.0" xmlns="http://www.w3.org/2000/svg"
 width="500.000000pt" height="500.000000pt" viewBox="0 0 500.000000 500.000000"
 preserveAspectRatio="xMidYMid meet">
<metadata>
Created by potrace 1.14, written by Peter Selinger 2001-2017
</metadata>
<g transform="translate(0.000000,500.000000) scale(0.100000,-0.100000)"
fill="#000000" stroke="none">
<path d="M186 4984 c-22 -58 13 -150 70 -180 l34 -19 0 -182 0 -183 235 0 235
0 0 -233 0 -233 223 1 c122 0 228 -1 235 -3 9 -3 12 -97 12 -423 l0 -419 -615
0 -615 0 0 -45 c0 -36 4 -45 18 -46 9 0 393 -1 852 -2 l835 -2 0 -185 0 -185
-137 -3 c-134 -2 -137 -2 -149 20 -46 88 -166 113 -240 51 -62 -52 -75 -129
-34 -198 59 -101 207 -101 266 0 l21 35 133 0 c97 0 134 -3 137 -12 2 -7 4
-197 4 -423 l-1 -410 -852 -3 -853 -2 0 -45 0 -45 615 0 615 0 0 -425 c0 -333
-3 -425 -12 -426 -29 -1 -209 1 -283 3 l-80 3 -3 233 -2 232 -425 0 -425 0 0
-45 0 -45 380 0 380 0 0 -235 0 -235 235 0 235 0 0 -87 c1 -49 1 -199 0 -335
l0 -248 44 0 44 0 1 207 c0 115 1 477 1 806 l0 597 235 0 235 0 0 750 0 750
-234 0 -235 0 0 448 c0 246 0 456 0 468 -1 20 -6 20 -218 19 -120 0 -226 1
-235 3 -16 4 -18 36 -17 466 0 253 0 467 0 474 -1 8 -17 12 -46 12 l-45 0 0
-244 0 -243 -187 1 -188 1 -3 135 -3 135 33 18 c54 30 73 64 73 132 l0 60 -65
3 c-62 3 -64 2 -42 -13 14 -10 22 -26 22 -43 -1 -59 -57 -88 -103 -52 -30 24
-34 55 -11 88 15 22 15 22 -39 22 -41 0 -56 -4 -61 -16z m1134 -2342 c45 -36
17 -112 -42 -112 -33 0 -68 31 -68 62 0 29 38 68 66 68 12 0 32 -8 44 -18z"/>
<path d="M1230 4710 l0 -290 235 0 235 0 0 -468 0 -467 223 0 c122 1 229 -1
237 -3 13 -3 15 -52 15 -367 l0 -365 -37 -25 c-48 -32 -71 -77 -72 -137 -1
-80 69 -148 151 -148 157 0 216 196 85 285 l-37 25 0 365 c0 236 4 365 10 366
6 1 66 2 134 3 l123 2 24 -36 c69 -103 220 -96 273 14 27 54 26 81 -1 136 -58
114 -207 114 -279 0 l-16 -25 -364 1 c-200 1 -367 2 -372 3 -4 0 -7 271 -6
600 l1 599 39 26 c57 38 76 84 71 169 -2 26 -4 27 -64 27 -60 0 -61 0 -43 -20
36 -40 7 -110 -45 -110 -51 0 -84 71 -50 108 l21 22 -60 0 -60 0 -7 -36 c-9
-51 11 -107 51 -143 20 -17 40 -31 45 -31 6 0 10 -56 10 -139 l0 -139 -187 2
-188 1 -2 230 c-1 127 -2 236 -2 243 -1 8 -17 12 -46 12 l-45 0 0 -290z m1505
-1135 c29 -28 32 -55 8 -83 -18 -21 -31 -25 -71 -23 -34 2 -55 56 -36 92 23
45 63 51 99 14z m-462 -946 c44 -60 -35 -131 -95 -86 -31 24 -33 63 -4 92 33
33 71 30 99 -6z"/>
<path d="M2177 4993 c-2 -5 -4 -240 -3 -523 l1 -515 181 0 182 0 18 -33 c36
-68 127 -96 202 -62 76 34 109 124 74 203 -50 113 -210 123 -275 17 l-22 -35
-130 0 c-71 0 -132 3 -135 7 -4 5 -5 757 -1 821 1 16 62 17 1131 17 l1130 0 0
-370 0 -369 -22 -12 c-38 -19 -77 -68 -84 -104 -32 -173 185 -261 283 -115 45
65 21 163 -49 209 l-38 24 0 414 0 413 -377 0 c-208 1 -525 1 -705 1 -195 0
-328 4 -328 10 0 11 -1027 13 -1033 2z m570 -959 c31 -48 -15 -112 -71 -98
-47 11 -63 50 -40 96 22 43 83 44 111 2z m1867 15 c61 -48 7 -139 -65 -109
-51 22 -52 100 -2 118 39 14 37 14 67 -9z"/>
<path d="M2653 4618 c-141 -29 -159 -231 -26 -290 72 -32 160 -5 199 61 l18
31 137 0 138 0 0 -655 0 -655 -237 -2 -237 -3 0 -465 0 -465 -233 -3 c-175 -2
-232 -5 -233 -15 -1 -6 -3 -426 -4 -932 -1 -506 -3 -924 -4 -930 -1 -6 -70
-10 -189 -9 l-187 2 -3 375 -2 374 31 13 c17 7 43 31 57 53 45 68 27 160 -41
211 -40 29 -134 30 -173 0 -51 -37 -68 -70 -68 -127 0 -60 26 -106 78 -138
l31 -19 0 -406 c1 -396 1 -407 20 -413 11 -4 116 -6 233 -6 141 1 212 -3 213
-10 1 -5 2 -50 3 -100 l1 -90 45 -3 45 -3 0 103 0 103 135 1 135 0 22 -37 c20
-31 48 -54 62 -49 2 1 7 -4 12 -11 12 -20 99 -16 137 7 38 22 72 72 77 112 5
35 -13 102 -26 102 -6 0 -8 4 -5 8 6 10 -60 55 -84 57 -11 1 -22 4 -25 7 -9 9
-72 -8 -100 -26 -14 -9 -36 -33 -50 -54 -23 -35 -27 -37 -72 -35 -26 1 -86 2
-133 2 l-85 1 0 660 0 660 137 0 137 0 16 -29 c43 -84 163 -106 233 -43 75 68
78 168 7 231 -78 68 -197 46 -244 -47 -12 -22 -15 -22 -149 -20 l-137 3 0 183
c0 101 3 186 6 188 9 5 1309 7 1315 2 2 -3 5 -426 6 -939 l1 -934 236 0 236 0
-1 -103 0 -103 40 3 41 3 1 141 1 141 -229 -1 c-143 -1 -232 3 -237 9 -11 17
-6 366 6 373 20 12 267 6 271 -7 2 -6 10 -18 18 -25 8 -8 14 -18 14 -23 0 -12
60 -44 71 -37 5 3 9 0 9 -6 0 -12 56 -8 95 6 22 9 84 72 86 88 1 6 2 25 4 41
12 113 -98 193 -210 152 -35 -12 -54 -30 -79 -72 l-17 -30 -128 1 c-71 1 -133
4 -137 7 -9 5 -11 833 -3 842 8 7 838 9 845 2 4 -4 7 -90 8 -192 1 -158 -1
-185 -14 -186 -19 -1 -230 -1 -250 0 -9 1 -24 17 -34 36 -24 44 -86 75 -141
71 -22 -2 -45 -4 -52 -5 -6 -1 -27 -17 -46 -36 -52 -52 -63 -148 -22 -189 8
-8 15 -19 15 -24 0 -6 20 -20 43 -31 80 -39 171 -7 215 76 9 16 23 18 139 16
70 -1 133 -2 138 -2 7 -1 10 -164 9 -469 l0 -467 210 1 c116 1 221 2 234 3 19
1 22 7 22 39 l0 38 -174 0 c-96 -1 -183 1 -193 4 -17 5 -18 20 -18 193 l0 187
23 1 c12 0 99 1 192 2 l171 1 -3 40 -3 41 -187 0 c-160 0 -188 2 -189 15 0 8
-1 220 -2 470 l-2 455 -463 1 c-254 1 -465 4 -469 7 -3 4 -6 110 -6 236 l0
230 -464 1 c-256 0 -468 2 -471 4 -4 2 -7 192 -7 423 l0 418 184 3 c102 1 189
-2 194 -7 5 -5 8 -42 7 -82 -1 -41 -2 -81 -2 -89 1 -8 2 -55 3 -105 1 -49 0
-94 -1 -100 -1 -5 -2 -27 -1 -48 l1 -38 940 2 940 2 0 42 0 42 -877 1 c-483 1
-886 2 -896 2 -16 0 -17 25 -15 422 l3 423 132 0 133 0 22 -34 c62 -95 202
-97 264 -3 28 42 25 128 -5 171 -31 44 -91 70 -145 64 -51 -5 -78 -23 -114
-71 l-27 -37 -132 0 -133 -1 0 468 0 468 -180 0 -181 0 -20 34 c-35 60 -103
89 -176 74z m102 -127 c3 -10 1 -30 -5 -45 -30 -80 -146 -36 -118 46 18 52
106 51 123 -1z m919 -912 c33 -26 34 -62 2 -94 -24 -24 -33 -25 -72 -12 -47
16 -47 93 -1 115 32 15 41 14 71 -9z m-948 -1867 c15 -10 34 -47 34 -66 0 -8
-10 -24 -22 -36 -60 -56 -147 20 -97 85 20 25 61 33 85 17z m1414 -464 c0 4 9
-6 19 -22 21 -32 15 -66 -17 -96 -32 -31 -97 -2 -102 45 -4 34 -1 44 21 64 16
15 27 17 50 11 16 -5 29 -6 29 -2z m-2348 -12 c26 -20 29 -61 7 -91 -37 -45
-103 -27 -115 33 -11 55 61 94 108 58z m2363 -474 c20 -35 22 -59 6 -79 -22
-29 -54 -43 -71 -33 -8 5 -17 7 -21 4 -4 -2 -10 5 -14 16 -3 11 -10 20 -14 20
-13 0 1 62 18 80 20 21 81 16 96 -8z m-1433 -451 c4 -1 15 -12 24 -26 22 -33
11 -76 -25 -96 -24 -14 -31 -14 -55 -2 -69 36 -41 139 34 127 8 -1 18 -3 22
-3z"/>
<path d="M3601 4619 c-135 -29 -168 -214 -50 -282 l39 -22 2 -180 3 -180 227
0 c124 0 229 -3 232 -6 5 -5 10 -689 7 -816 -1 -23 -3 -23 -138 -23 l-138 1
-20 32 c-62 98 -214 95 -266 -5 -56 -109 18 -232 138 -230 55 2 115 39 133 83
l12 29 324 0 c265 0 324 -2 324 -13 0 -16 24 -44 64 -75 56 -43 163 -22 208
41 28 39 35 114 14 155 -21 41 -72 79 -117 87 -58 11 -140 -31 -160 -82 -8
-22 -13 -23 -149 -23 l-140 0 0 185 c0 102 3 186 8 186 4 1 194 2 422 3 l415
1 3 45 3 45 -423 0 -423 0 -3 373 c-1 232 1 372 7 372 17 0 80 64 91 93 37
102 -39 211 -146 209 -87 -2 -154 -67 -154 -149 0 -64 37 -124 88 -144 22 -9
23 -11 20 -146 l-3 -138 -187 0 -188 0 0 135 1 135 40 28 c108 74 83 235 -41
271 -27 7 -58 10 -79 5z m84 -112 c22 -31 18 -60 -9 -86 -32 -30 -80 -21 -100
18 -36 69 65 131 109 68z m468 5 c17 -15 23 -58 9 -78 -9 -14 -47 -34 -64 -34
-8 0 -24 9 -36 20 -31 29 -29 73 5 99 28 23 54 21 86 -7z m-476 -1404 c30 -28
29 -63 -1 -93 -24 -24 -32 -25 -73 -11 -41 13 -47 78 -11 109 27 23 57 22 85
-5z m943 2 c31 -31 27 -82 -9 -103 -69 -41 -137 48 -79 103 28 25 62 26 88 0z"/>
<path d="M525 4111 c-3 -5 -2 -12 3 -15 5 -3 9 1 9 9 0 17 -3 19 -12 6z"/>
<path d="M5 4042 c-3 -3 -5 -24 -5 -47 l0 -42 133 2 c72 0 138 -1 145 -3 9 -3
12 -59 12 -236 l0 -232 177 1 c139 0 179 -3 187 -14 64 -82 119 -108 193 -89
31 7 54 22 78 51 30 35 35 48 35 92 0 57 -24 102 -71 138 -34 25 -106 30 -148
10 -27 -14 -42 -28 -89 -88 -5 -6 -63 -10 -138 -10 l-129 0 -5 235 -5 236
-183 0 c-100 0 -184 -2 -187 -4z m828 -453 c29 -16 37 -28 37 -60 0 -56 -77
-83 -112 -39 -26 32 -22 65 8 89 31 24 37 25 67 10z"/>
<path d="M0 2595 c0 -44 1 -45 33 -45 17 -1 188 -1 380 0 l347 0 0 -190 0
-190 -137 0 -138 0 -16 33 c-20 41 -82 77 -134 77 -37 0 -91 -24 -119 -53 -24
-24 -38 -78 -34 -121 17 -144 204 -187 285 -64 l26 38 316 0 316 0 19 -34 c26
-49 86 -79 146 -74 85 8 142 69 142 153 0 91 -60 149 -153 150 -64 0 -100 -19
-134 -73 l-20 -31 -137 -1 -138 0 0 235 0 235 -425 0 -425 0 0 -45z m380 -425
c27 -27 26 -75 -2 -94 -31 -22 -64 -20 -88 4 -26 26 -25 60 0 88 26 27 64 28
90 2z m948 -5 c51 -64 -40 -143 -98 -85 -26 26 -25 58 2 87 29 31 71 30 96 -2z"/>
<path d="M4033 2259 c-67 -33 -101 -121 -74 -192 12 -30 70 -89 81 -82 5 3 11
1 15 -5 10 -17 76 -11 120 10 26 13 49 34 61 55 10 19 21 35 24 36 3 0 171 1
373 1 l368 2 -3 40 -3 41 -355 2 c-195 1 -362 2 -371 2 -9 1 -22 13 -28 29
-28 66 -134 98 -208 61z m122 -94 c16 -16 19 -28 14 -48 -4 -15 -4 -27 -1 -27
4 0 -4 -7 -17 -16 -70 -49 -147 32 -96 100 8 11 15 16 15 12 0 -4 8 -3 17 2
21 12 42 5 68 -23z"/>
<path d="M3089 1790 c-34 -18 -69 -50 -55 -50 4 0 0 -7 -8 -16 -13 -13 -21
-47 -18 -75 8 -64 37 -111 82 -131 17 -7 30 -20 31 -28 1 -18 1 -205 0 -237
l-1 -23 -237 -2 -237 -3 -1 -265 c-1 -146 1 -270 3 -276 2 -8 66 -12 215 -12
117 0 223 -1 237 -1 l25 -1 -1 -335 -1 -335 41 0 41 0 2 378 1 379 -229 0
c-126 0 -233 3 -237 7 -4 4 -7 90 -7 192 -1 159 1 184 15 185 8 0 115 1 237 1
l222 0 0 172 c-1 94 0 176 0 182 1 6 12 16 25 22 63 28 103 138 70 190 -8 12
-11 22 -7 22 3 0 -4 12 -18 26 -50 54 -126 68 -190 34z m136 -120 c17 -77 -97
-115 -123 -41 -18 50 -1 77 58 94 24 6 58 -22 65 -53z"/>
<path d="M264 856 c-75 -33 -108 -148 -62 -216 13 -19 38 -44 55 -55 l32 -20
3 -180 3 -180 233 0 232 0 0 -102 0 -103 45 0 45 0 0 145 0 145 -235 0 -235 0
0 138 0 137 34 19 c44 23 76 82 76 138 0 109 -119 180 -226 134z m119 -94 c38
-33 5 -112 -48 -112 -28 0 -65 35 -65 61 0 30 18 59 43 68 25 9 44 5 70 -17z"/>
</g>
</svg>
